<svg width="89" height="73" viewBox="0 0 89 73" fill="none" xmlns="http://www.w3.org/2000/svg">
<g clip-path="url(#clip0_236_9811)">
<path d="M75.0486 60.1817L74.7579 60.4942H75.6213L75.0516 60.1817H75.0486ZM3.02466 3.26431V60.4942H61.1736L62.9678 57.3774L63.3114 56.7817V56.7758L63.3819 56.6549L63.3349 56.6461L62.1221 56.478L62.5391 54.3106L62.633 53.8182L61.4702 53.2786L60.1781 52.677L60.4688 52.1433L61.4849 50.2915L61.4937 50.2738L60.598 49.4275L59.5321 48.419L61.4731 46.5524L60.1987 44.1698L62.633 43.0257L62.1603 40.3452L64.8296 39.9737L65.1643 37.2932L67.8336 37.8063L68.9701 35.3441L71.3662 36.6622L73.2045 34.7307L74.2235 35.7953L74.664 36.2553L75.034 36.6416L75.0809 36.618L77.4478 35.3618L78.0322 36.6357L78.5637 37.8034L79.101 37.7061L80.2081 37.5026V3.26431H3.02466ZM67.7866 59.0198L66.0541 59.3324L66.1892 60.4972H66.3507L68.324 60.1433L67.7866 59.0228V59.0198ZM71.3398 60.1846L70.7701 60.4972H71.6335L71.3428 60.1846H71.3398Z" fill="black" stroke="black" stroke-linecap="round" stroke-linejoin="round"/>
<path d="M83.083 57.7843V58.6365L82.6514 57.8816L82.6572 57.8403L83.083 57.7843Z" fill="black" stroke="black" stroke-linecap="round" stroke-linejoin="round"/>
<path d="M80.205 0.14743V37.4967L79.098 37.7001L78.5606 37.7975L78.0261 36.6297L77.4447 35.3559L75.0749 36.612L75.0279 36.6356L74.658 36.2493L74.2175 35.7893L73.1985 34.7219L71.3602 36.6533L68.964 35.3382L67.8276 37.7975L65.1583 37.2873L64.8235 39.9678L62.1572 40.3393L62.627 43.0197L60.1956 44.1639L61.47 46.5465L59.529 48.4131L60.595 49.4216L61.4877 50.2708L61.4789 50.2885L60.4628 52.1403L60.1721 52.677L61.4642 53.2756L62.627 53.8152L62.536 54.3077L62.119 56.478L63.3318 56.6461L63.3788 56.6549L63.3083 56.7758V56.7788L62.9677 57.3744H0.146729V0.14743H80.205Z" fill="white" stroke="black" stroke-linecap="round" stroke-linejoin="round"/>
<path d="M40.1746 22.6024C42.9641 22.6024 45.2254 20.3316 45.2254 17.5305C45.2254 14.7294 42.9641 12.4586 40.1746 12.4586C37.3851 12.4586 35.1238 14.7294 35.1238 17.5305C35.1238 20.3316 37.3851 22.6024 40.1746 22.6024Z" fill="#FB9D3C" stroke="black" stroke-linecap="round" stroke-linejoin="round"/>
<path d="M74.658 5.37857V36.2494L74.2175 35.7893L73.1985 34.7219L71.3603 36.6533L68.9641 35.3382L67.8276 37.7975L65.1583 37.2873L64.8236 39.9678L62.1572 40.3393L62.6271 43.0198L60.1956 44.1639L61.4701 46.5465L59.529 48.4131L60.595 49.4216L61.4877 50.2708L61.4789 50.2885L60.4628 52.1403H5.69385V5.37857H74.658Z" fill="#00ED5C" stroke="black" stroke-linecap="round" stroke-linejoin="round"/>
<path d="M40.1746 21.3285C42.2634 21.3285 43.9568 19.6281 43.9568 17.5305C43.9568 15.4329 42.2634 13.7325 40.1746 13.7325C38.0857 13.7325 36.3923 15.4329 36.3923 17.5305C36.3923 19.6281 38.0857 21.3285 40.1746 21.3285Z" fill="white" stroke="black" stroke-linecap="round" stroke-linejoin="round"/>
<path d="M62.5273 27.1494H17.8218V29.8033H62.5273V27.1494Z" fill="white" stroke="black" stroke-linecap="round" stroke-linejoin="round"/>
<path d="M62.5273 33.1414H17.8218V35.7953H62.5273V33.1414Z" fill="white" stroke="black" stroke-linecap="round" stroke-linejoin="round"/>
<path d="M69.8304 62.1131L63.6608 72.8526L62.3863 66.725L56.4692 68.6889L61.1735 60.4942L62.9678 57.3744H63.1939L63.1704 57.5071L64.9323 57.7489L65.1408 59.4916L66.054 59.3295L66.1862 60.4942L66.1921 60.5208L66.3506 60.4942L68.324 60.1404L68.4913 60.4942L68.9641 61.485L69.4134 61.2373L69.8304 62.1131Z" fill="#7C42F7" stroke="black" stroke-linecap="round" stroke-linejoin="round"/>
<path d="M68.3239 60.1404L66.3505 60.4942L66.192 60.5208L66.1861 60.4942L66.054 59.3295L67.7865 59.0198L68.3239 60.1404Z" fill="#7C42F7" stroke="black" stroke-linecap="round" stroke-linejoin="round"/>
<path d="M75.6182 60.4942H74.7549L75.0485 60.1817L75.6182 60.4942Z" fill="#7C42F7" stroke="black" stroke-linecap="round" stroke-linejoin="round"/>
<path d="M88.8531 68.6889L82.936 66.725L81.6615 72.8526L75.4038 61.9539L76.1056 61.2108L78.4783 62.5142L79.4268 60.4942L79.6353 60.046L82.055 60.4942L82.3046 60.5414L82.3105 60.4942L82.6511 57.8816L83.0828 58.6365L88.8531 68.6889Z" fill="#7C42F7" stroke="black" stroke-linecap="round" stroke-linejoin="round"/>
<path d="M82.3107 60.4942L82.3048 60.5414L82.0552 60.4942H82.3107Z" fill="#7C42F7" stroke="black" stroke-linecap="round" stroke-linejoin="round"/>
<path d="M83.0829 3.26431V40.186L82.5191 40.1123L81.5823 39.9855L81.3885 38.5022L81.2299 37.305L80.2051 37.4967V3.26431H83.0829Z" fill="black" stroke="black" stroke-linecap="round" stroke-linejoin="round"/>
<path d="M87.288 53.6619L84.8155 54.8443L85.3088 57.4865L83.083 57.7843L82.6572 57.8403L82.6513 57.8816L82.3106 60.4942H82.0552L79.6355 60.046L79.427 60.4942L78.4785 62.5141L76.1058 61.2108L75.404 61.9539L74.2499 63.1835L73.2397 62.1072L74.6405 60.6181L74.755 60.4942H75.6183L77.4213 61.485L77.8853 60.4942L78.5783 59.0198L81.2476 59.5123L81.6 56.8112L82.0023 56.7581L83.083 56.6136L84.2517 56.4603L83.7613 53.8152L86.2338 52.6328L84.9183 50.2944L86.8476 48.4219L87.9165 49.4363L85.9754 51.3176L87.288 53.6619Z" fill="black" stroke="black" stroke-linecap="round" stroke-linejoin="round"/>
<path d="M82.3107 60.4942L82.3048 60.5414L82.0552 60.4942H82.3107Z" fill="black" stroke="black" stroke-linecap="round" stroke-linejoin="round"/>
<path d="M72.3381 61.2373L70.0212 62.5141L69.8303 62.1131L69.4133 61.2373L70.7524 60.5031H70.7553L70.77 60.4942H71.6333L72.3381 61.2373Z" fill="black" stroke="black" stroke-linecap="round" stroke-linejoin="round"/>
<path d="M63.1704 57.5071L63.1939 57.3744H62.9678L63.3084 56.7788V56.7758L63.3789 56.6549L64.8237 56.8554L64.8853 57.3744L64.9323 57.7489L63.1704 57.5071Z" fill="black" stroke="black" stroke-linecap="round" stroke-linejoin="round"/>
<path d="M71.6334 60.4942H70.77L71.3397 60.1816L71.6334 60.4942Z" fill="black" stroke="black" stroke-linecap="round" stroke-linejoin="round"/>
<path d="M75.6182 60.4942H74.7549L75.0485 60.1816L75.6182 60.4942Z" fill="black" stroke="black" stroke-linecap="round" stroke-linejoin="round"/>
<path d="M68.3239 60.1404L66.3505 60.4942L66.192 60.5208L66.1861 60.4942L66.054 59.3295L67.7865 59.0198L68.3239 60.1404Z" fill="black" stroke="black" stroke-linecap="round" stroke-linejoin="round"/>
<path d="M70.7695 60.4942L70.7554 60.5027L70.761 60.4942H70.7695Z" fill="black" stroke="black" stroke-linecap="round" stroke-linejoin="round"/>
<path d="M62.627 53.8152L62.536 54.3077L61.2292 53.7032L61.4642 53.2756L62.627 53.8152Z" fill="black" stroke="black" stroke-linecap="round" stroke-linejoin="round"/>
<path d="M63.3788 56.6549L63.3083 56.7758L63.3318 56.6461L63.3788 56.6549Z" fill="black" stroke="black" stroke-linecap="round" stroke-linejoin="round"/>
<path d="M61.4877 50.2708L61.4789 50.2885L60.5803 49.4363L60.595 49.4216L61.4877 50.2708Z" fill="black" stroke="black" stroke-linecap="round" stroke-linejoin="round"/>
<path d="M75.075 36.6121L75.028 36.6356L74.658 36.2494L74.2175 35.7893L74.2498 35.751L74.658 36.1786L75.075 36.6121Z" fill="black" stroke="black" stroke-linecap="round" stroke-linejoin="round"/>
<path d="M79.098 37.7002L78.5606 37.7975L78.0261 36.6298L78.496 36.385L79.098 37.7002Z" fill="black" stroke="black" stroke-linecap="round" stroke-linejoin="round"/>
<path d="M85.3088 41.3684L84.9035 43.5505L83.7612 43.002L84.0901 41.2062L85.3088 41.3684Z" fill="black" stroke="black" stroke-linecap="round" stroke-linejoin="round"/>
<path d="M87.2498 45.193L85.9607 47.5579L84.9006 46.5465L85.9666 44.5797L87.2498 45.193Z" fill="black" stroke="black" stroke-linecap="round" stroke-linejoin="round"/>
<path d="M84.9182 50.2944L86.8475 48.4248L85.9519 47.5785L85.9607 47.5609L84.9006 46.5524L85.9665 44.5826L86.1927 44.1698L84.9035 43.5564L83.7583 43.0079L84.0872 41.2121L84.2487 40.3452L83.08 40.1919L82.5132 40.1181L81.5764 39.9913L81.3826 38.5081L81.2241 37.3109L80.1992 37.5026L79.0922 37.706L78.5548 37.8033L78.0233 36.6356L77.4389 35.3618L75.0721 36.6179L75.0251 36.6415L74.6551 36.2552L74.2146 35.7952L73.1956 34.7307L71.3574 36.6622L68.9612 35.3441L67.8247 37.8063L65.1554 37.2932L64.8207 39.9736L62.1514 40.3452L62.6242 43.0256L60.1898 44.1698L61.4642 46.5524L59.5232 48.4189L60.5892 49.4274L61.4848 50.2737L61.476 50.2914L60.4599 52.1433L60.1692 52.677L61.4613 53.2785L62.6242 53.8182L62.5302 54.3106L62.1132 56.478L63.326 56.646L63.373 56.6549L64.8177 56.8554L64.8765 57.3773L64.9235 57.7489L65.1319 59.4946L66.0452 59.3324L67.7777 59.0198L68.3151 60.1403L68.4825 60.4942L68.9553 61.485L69.4046 61.2373L70.7436 60.503H70.7495L70.7554 60.4942H70.7642L71.3339 60.1816L71.6246 60.4942L72.3294 61.2373L72.3851 61.2108L73.2338 62.1101L74.6345 60.621L74.749 60.4942L75.0398 60.1816L75.6094 60.4942L77.4125 61.485L77.8764 60.4942L78.5724 59.0198L81.2417 59.5123L81.5941 56.8141L81.9964 56.7581L83.077 56.6136L84.2457 56.4603L83.7553 53.8182L86.2308 52.6357L84.9153 50.2944H84.9182ZM80.8453 54.7323C80.6426 54.98 80.4283 55.2159 80.2051 55.4429C79.4269 56.2244 78.5225 56.8819 77.5182 57.3744C76.2584 57.9877 74.8401 58.3475 73.3483 58.3652C73.2984 58.3711 73.2455 58.3711 73.1956 58.3711C72.7963 58.3711 72.4086 58.3475 72.024 58.2974C70.9081 58.1706 69.8421 57.8491 68.8731 57.3773C67.2873 56.5989 65.9454 55.4135 64.9763 53.9568C64.5975 53.3876 64.2774 52.7831 64.0219 52.1433C63.558 50.9991 63.3084 49.7459 63.3084 48.4396C63.3084 42.9578 67.7337 38.5081 73.1986 38.5081C73.6948 38.5081 74.1852 38.5464 74.6639 38.6202C76.8193 38.9357 78.7456 39.956 80.211 41.4362C81.9905 43.232 83.0888 45.709 83.0888 48.4396C83.0888 50.8281 82.2489 53.019 80.8511 54.7352L80.8453 54.7323Z" fill="#7C42F7" stroke="black" stroke-linecap="round" stroke-linejoin="round"/>
<path d="M73.2396 62.1072L73.1985 62.1544L72.3381 61.2373L72.3939 61.2108L73.2396 62.1072Z" fill="#B265EC" stroke="black" stroke-linecap="round" stroke-linejoin="round"/>
<path d="M70.7695 60.4942L70.7554 60.5027L70.761 60.4942H70.7695Z" fill="#B265EC" stroke="black" stroke-linecap="round" stroke-linejoin="round"/>
<path d="M86.8593 48.4131L86.8475 48.4219L85.9519 47.5756L85.9607 47.5579L86.8593 48.4131Z" fill="#B265EC" stroke="black" stroke-linecap="round" stroke-linejoin="round"/>
<path d="M83.0829 48.4367C83.0829 50.8252 82.243 53.0161 80.8452 54.7323C80.6426 54.98 80.4283 55.2159 80.2051 55.443C79.4269 56.2244 78.5225 56.882 77.5182 57.3744C76.2584 57.9878 74.8401 58.3475 73.3483 58.3652C73.2984 58.3711 73.2455 58.3711 73.1956 58.3711C72.7962 58.3711 72.4086 58.3475 72.0239 58.2974C70.9081 58.1706 69.8421 57.8492 68.8731 57.3774C67.2873 56.5989 65.9453 55.4135 64.9763 53.9568C64.5975 53.3877 64.2774 52.7832 64.0219 52.1433C63.558 50.9992 63.3083 49.7459 63.3083 48.4396C63.3083 42.9578 67.7337 38.5081 73.1985 38.5081C73.6948 38.5081 74.1852 38.5465 74.6639 38.6202C76.8193 38.9357 78.7456 39.956 80.211 41.4363C81.9905 43.2321 83.0887 45.709 83.0887 48.4396L83.0829 48.4367Z" fill="white" stroke="black" stroke-linecap="round" stroke-linejoin="round"/>
</g>
<defs>
<clipPath id="clip0_236_9811">
<rect width="89" height="73" fill="white"/>
</clipPath>
</defs>
</svg>